<svg xmlns="http://www.w3.org/2000/svg" xmlns:xlink="http://www.w3.org/1999/xlink" xmlns:fi="http://pattern.flaticon.com/" x="0" y="0" width="700" height="350" viewBox="0 0 1225 612.5"><rect x="0px" y="0px" width="100%" height="100%" opacity="0" fill="#ff9d3d"/><defs><path d="M47.706,59.8l15.893-28l-15.893-28H15.892L0,31.8l15.893,28H47.706z M17.056,5.8h29.485l14.758,26l-14.757,26H17.056    l-14.757-26L17.056,5.8z" transform="matrix(2.1357784187323138e-16 3.4879908561706543 -3.4879908561706543 2.1357784187323138e-16 340.63553644818063 14.128766297445281)"/><path d="M47.706,59.8l15.893-28l-15.893-28H15.892L0,31.8l15.893,28H47.706z M17.056,5.8h29.485l14.758,26l-14.757,26H17.056    l-14.757-26L17.056,5.8z" transform="matrix(2.1357784187323138e-16 3.4879908561706543 -3.4879908561706543 2.1357784187323138e-16 145.63553910930648 168.12876629744528)"/></defs><g fi:class="KUsePattern" transform="matrix(1 0 0 1 20 20)"><pattern id="pattern_UNKNOWN" width="350" height="350" patternUnits="userSpaceOnUse"><use xlink:href="#UNKNOWN" x="-350" y="-350"/><use xlink:href="#UNKNOWN" x="0" y="-350"/><use xlink:href="#UNKNOWN" x="350" y="-350"/><use xlink:href="#UNKNOWN" x="-350" y="0"/><use xlink:href="#UNKNOWN" x="0" y="0"/><use xlink:href="#UNKNOWN" x="350" y="0"/><use xlink:href="#UNKNOWN" x="-350" y="350"/><use xlink:href="#UNKNOWN" x="0" y="350"/><use xlink:href="#UNKNOWN" x="350" y="350"/></pattern><rect x="0" y="0" width="100%" height="100%" fill="url(#pattern_UNKNOWN)"/></g><g fi:class="KUsePattern" transform="matrix(1 0 0 1 40 40)"><pattern id="pattern_UNKNOWN" width="350" height="350" patternUnits="userSpaceOnUse"><use xlink:href="#UNKNOWN" x="-350" y="-350"/><use xlink:href="#UNKNOWN" x="0" y="-350"/><use xlink:href="#UNKNOWN" x="350" y="-350"/><use xlink:href="#UNKNOWN" x="-350" y="0"/><use xlink:href="#UNKNOWN" x="0" y="0"/><use xlink:href="#UNKNOWN" x="350" y="0"/><use xlink:href="#UNKNOWN" x="-350" y="350"/><use xlink:href="#UNKNOWN" x="0" y="350"/><use xlink:href="#UNKNOWN" x="350" y="350"/></pattern><rect x="0" y="0" width="100%" height="100%" fill="url(#pattern_UNKNOWN)"/></g></svg>